<svg id="Logo_White" data-name="Logo White" xmlns="http://www.w3.org/2000/svg" width="278" height="236.395" viewBox="0 0 278 236.395">
  <g id="Image" transform="translate(1.409 76.29)">
    <path id="Green" d="M2522.74,1327.216h-163.5v107.379Z" transform="translate(-2359.24 -1327.216)" fill="#fff"/>
    <path id="Orange" d="M2462.632,1327.216h51.193l.143,107.205h-17.333Z" transform="translate(-2239.602 -1327.216)" fill="#fff"/>
    <path id="Subtraction_1" data-name="Subtraction 1" d="M183.207,107.207H116.354L126.062,68.8h-24.72L78.788,107.206H0L124.859,0H142l-3.1,3.681h7.942L147.944,0H166.82l16.386,107.206ZM123.955,30.271h0L109.589,54.176h22.1l6.546-23.905ZM136.529,7.835l-6.986,11.916h12.936L145.7,7.835Z" transform="translate(49.384 0)" fill="#fff"/>
  </g>
  <path id="Path_13" data-name="Path 13" d="M20.442-23.2q3.82,0,8.313.411a48.989,48.989,0,0,1,8.763,1.605l-.749,7.616q-3.3-.149-7.714-.224t-8.688-.075q-2.1,0-3.557.149a6.918,6.918,0,0,0-2.359.6,2.545,2.545,0,0,0-1.273,1.456A8.04,8.04,0,0,0,12.8-8.938,5.1,5.1,0,0,0,14.039-5.13,11.147,11.147,0,0,0,18.27-2.964L28.231.246q6.216,2.091,8.613,5.675a16.645,16.645,0,0,1,2.4,9.408,21.844,21.844,0,0,1-1.049,7.317A9.422,9.422,0,0,1,34.9,27.2a14.642,14.642,0,0,1-5.917,2.352,48.294,48.294,0,0,1-8.987.709q-2.546,0-7.265-.3a64.881,64.881,0,0,1-10.71-1.717l.674-8.064q4.494.075,7.714.187t5.542.149q2.322.037,4.044.037a23.262,23.262,0,0,0,4.756-.373,3.453,3.453,0,0,0,2.359-1.493,6.279,6.279,0,0,0,.674-3.211,7.051,7.051,0,0,0-.487-2.912,3.936,3.936,0,0,0-1.61-1.717,12.605,12.605,0,0,0-2.921-1.195L12.279,6.07Q6.287,3.98,3.853.47T1.419-8.863A20.509,20.509,0,0,1,2.5-16.106a9,9,0,0,1,3.333-4.368A14.569,14.569,0,0,1,11.717-22.6,54.7,54.7,0,0,1,20.442-23.2Zm50.928.971a4.175,4.175,0,0,1,2.509.784,3.816,3.816,0,0,1,1.46,2.2L90.319,29.292H78.635L68.075-8.639q-.3-1.195-.6-2.5t-.524-2.5H64.929q-.225,1.195-.487,2.5a24.413,24.413,0,0,1-.637,2.5L53.246,29.292H41.562L56.541-19.242a3.816,3.816,0,0,1,1.46-2.2,4.175,4.175,0,0,1,2.509-.784ZM79.309,7.116v8.512H52.5V7.116ZM138.7-22.228V25.185q0,4.107-4.119,4.107H128.29a4.032,4.032,0,0,1-2.809-.859,9.42,9.42,0,0,1-1.835-2.576l-14.3-27.1q-.9-1.717-1.76-3.771t-1.46-3.995H105.3q.225,1.941.374,4.032t.15,4.032v30.24H95.037V-18.122q0-4.107,4.119-4.107h6.216a3.911,3.911,0,0,1,2.734.859,9.711,9.711,0,0,1,1.835,2.5L123.8,7.414q.974,1.717,1.947,3.808t1.8,4.331h.9q-.15-2.24-.3-4.368t-.15-4.219V-22.228Zm25.6-.829a36.436,36.436,0,0,1,11.047,1.381,10.862,10.862,0,0,1,6.216,4.667q1.985,3.285,1.985,9.259a19.408,19.408,0,0,1-.936,6.309A8.994,8.994,0,0,1,179.5,2.927a12.05,12.05,0,0,1-5.917,2.091v.373A8.666,8.666,0,0,1,176.4,6.436a9.465,9.465,0,0,1,2.734,2.427A10.511,10.511,0,0,1,181,13.156L185.5,29.21H173.512l-3.969-15.755a6.44,6.44,0,0,0-2.022-3.472,6.142,6.142,0,0,0-3.67-.933q-5.093-.075-8.538-.075t-5.8-.075q-2.359-.075-4.306-.149l.225-8.288h18.649a14.361,14.361,0,0,0,4.793-.635,4.206,4.206,0,0,0,2.472-2.277,11.458,11.458,0,0,0,.749-4.629,10.906,10.906,0,0,0-.749-4.555,4.243,4.243,0,0,0-2.472-2.2,14.361,14.361,0,0,0-4.793-.635q-6.965,0-11.871.075t-6.628.149l-1.123-8.064q3.146-.373,5.879-.523t6.029-.187Q159.657-23.057,164.3-23.057Zm-8.613.747V29.21H144.453v-51.52Zm65.322.082a4.175,4.175,0,0,1,2.509.784,3.816,3.816,0,0,1,1.46,2.2l14.979,48.534H228.274L217.714-8.639q-.3-1.195-.6-2.5t-.524-2.5h-2.022q-.225,1.195-.487,2.5a24.412,24.412,0,0,1-.637,2.5l-10.56,37.931H191.2L206.18-19.242a3.816,3.816,0,0,1,1.46-2.2,4.175,4.175,0,0,1,2.509-.784Zm7.939,29.344v8.512H202.136V7.116ZM255.91-22.228V16.3a3.677,3.677,0,0,0,1.048,2.837,4.251,4.251,0,0,0,3,.971H278l.524,8.587q-5.318.523-11.122.672t-11.5.149q-5.692,0-8.538-3.024a10.824,10.824,0,0,1-2.846-7.728V-22.228Z" transform="translate(-1.419 23.199)" fill="#fff"/>
  <path id="Path_12" data-name="Path 12" d="M6.573-3.4a10.521,10.521,0,0,1,3.02.348,2.7,2.7,0,0,1,1.622,1.222,4.99,4.99,0,0,1,.5,2.467A4.383,4.383,0,0,1,11.1,3.168a2.6,2.6,0,0,1-2,1.009v.09a2.99,2.99,0,0,1,2.4,1.211,5.335,5.335,0,0,1,.682,2.916,5.085,5.085,0,0,1-.492,2.467,2.647,2.647,0,0,1-1.577,1.222,9.588,9.588,0,0,1-2.852.348q-1.32,0-2.27-.011t-1.756-.056q-.805-.045-1.678-.112l.313-1.57q.492.022,1.868.045t3.21.022a6.953,6.953,0,0,0,1.935-.213,1.591,1.591,0,0,0,1.007-.8,3.744,3.744,0,0,0,.3-1.682A4.408,4.408,0,0,0,9.884,6.2a1.791,1.791,0,0,0-1.051-.92,6.388,6.388,0,0,0-2.013-.292H1.854v-1.5H6.8a6.4,6.4,0,0,0,1.778-.235,1.548,1.548,0,0,0,.951-.785,3.6,3.6,0,0,0,.291-1.6A3.366,3.366,0,0,0,9.5-.756a1.621,1.621,0,0,0-1.04-.763,7.7,7.7,0,0,0-1.979-.2H4.516q-.872,0-1.532.011t-1.107.056l-.313-1.57q.783-.09,1.487-.123t1.543-.045Q5.433-3.4,6.573-3.4Zm-3.087.179V12.251H1.563V-3.223Zm24.537,0V6.331a10.069,10.069,0,0,1-.537,3.611,3.615,3.615,0,0,1-1.745,1.985,7.183,7.183,0,0,1-3.243.617,7.6,7.6,0,0,1-3.333-.617,3.671,3.671,0,0,1-1.812-1.985A9.7,9.7,0,0,1,16.8,6.331V-3.223h1.968V6.331a8.1,8.1,0,0,0,.347,2.635,2.379,2.379,0,0,0,1.152,1.39,4.712,4.712,0,0,0,2.147.415,4.64,4.64,0,0,0,2.136-.415A2.433,2.433,0,0,0,25.7,8.966a7.863,7.863,0,0,0,.358-2.635V-3.223Zm7.225,0V12.251H33.28V-3.223Zm7.269,0V9.112a1.5,1.5,0,0,0,.369,1.121,1.565,1.565,0,0,0,1.13.359h5.569l.089,1.525q-1.454.112-2.964.135t-3.008.022a3.046,3.046,0,0,1-2.416-.83,3.08,3.08,0,0,1-.716-2.086V-3.223Zm16.574-.2a8.542,8.542,0,0,1,2.807.4A3.908,3.908,0,0,1,63.755-1.7,6.047,6.047,0,0,1,64.784.746a18.484,18.484,0,0,1,.324,3.768,18.484,18.484,0,0,1-.324,3.768,6.047,6.047,0,0,1-1.029,2.445A3.908,3.908,0,0,1,61.9,12.05a8.542,8.542,0,0,1-2.807.4q-1.588,0-2.941-.056t-2.561-.146l.85-1.615q.939.022,2.091.056t2.561.034a4.234,4.234,0,0,0,2.349-.572,3.187,3.187,0,0,0,1.241-1.929,14.743,14.743,0,0,0,.369-3.712A14.743,14.743,0,0,0,62.681.8a3.239,3.239,0,0,0-1.241-1.94,4.171,4.171,0,0,0-2.349-.583q-1.387,0-2.494.022l-2.158.045-.85-1.57q1.208-.09,2.561-.146T59.091-3.425Zm-3.534.2V12.251H53.589V-3.223Zm16.328,0V12.251H69.917V-3.223Zm17.245,0v14.69a.683.683,0,0,1-.76.785H86.446a.849.849,0,0,1-.537-.157,1.159,1.159,0,0,1-.336-.471L80.362.656q-.2-.449-.47-1.009a6.627,6.627,0,0,1-.4-1.032h-.358q.045.493.067,1.009T79.222.656V12.251H77.253V-2.438a.693.693,0,0,1,.783-.785h1.856a.849.849,0,0,1,.537.157,1.159,1.159,0,0,1,.336.471L85.82,8.1q.246.471.526,1.065t.526,1.177h.38q-.022-.606-.045-1.189T87.184,7.99V-3.223Zm11.251-.292q.783,0,1.521.045t1.432.146a10.94,10.94,0,0,1,1.342.28l-.2,1.48q-.693-.067-1.4-.112t-1.353-.056q-.649-.011-1.23-.011a8.129,8.129,0,0,0-2.114.235A2.513,2.513,0,0,0,97-.6a4.546,4.546,0,0,0-.749,1.929A18.455,18.455,0,0,0,96.019,4.6a16.873,16.873,0,0,0,.313,3.644,3.454,3.454,0,0,0,1.051,1.962,3.008,3.008,0,0,0,1.968.606,4.677,4.677,0,0,0,1.555-.247,6.337,6.337,0,0,0,1.32-.639q.615-.392,1.2-.819l.268,1.211a6.542,6.542,0,0,1-1.107.987,6.988,6.988,0,0,1-1.644.875,5.92,5.92,0,0,1-2.125.359,4.37,4.37,0,0,1-2.807-.863,4.936,4.936,0,0,1-1.577-2.646,17.562,17.562,0,0,1-.492-4.564,14.941,14.941,0,0,1,.615-4.811A4.154,4.154,0,0,1,96.59-2.8,8.462,8.462,0,0,1,100.381-3.515Zm4.7,6.818v8.949h-1.431l-.313-2.288-.179-.449V3.3Zm15.7-6.8q1.1.022,2.259.112a17.8,17.8,0,0,1,2.326.336l-.134,1.435q-.962-.045-2.125-.078t-2.237-.034q-.828,0-1.42.056a2.461,2.461,0,0,0-.973.269,1.214,1.214,0,0,0-.548.7A4.211,4.211,0,0,0,117.76.634a2.666,2.666,0,0,0,.459,1.783,2.872,2.872,0,0,0,1.487.751l3.131.785a3.728,3.728,0,0,1,2.449,1.491,5.391,5.391,0,0,1,.66,2.859,6.492,6.492,0,0,1-.3,2.175,2.557,2.557,0,0,1-.928,1.267,3.945,3.945,0,0,1-1.61.606,14,14,0,0,1-2.326.168q-.76,0-1.979-.067a22.705,22.705,0,0,1-2.807-.359l.134-1.458q1.32.045,2.125.078t1.387.034h1.208a7.664,7.664,0,0,0,1.868-.179,1.426,1.426,0,0,0,.962-.718,3.56,3.56,0,0,0,.28-1.592,3.805,3.805,0,0,0-.2-1.39,1.506,1.506,0,0,0-.637-.751A3.949,3.949,0,0,0,122.01,5.7l-3.2-.807a3.761,3.761,0,0,1-2.36-1.48,5.143,5.143,0,0,1-.682-2.826,6.39,6.39,0,0,1,.3-2.164,2.457,2.457,0,0,1,.917-1.234,3.682,3.682,0,0,1,1.555-.549A16.034,16.034,0,0,1,120.78-3.493Zm15.254-.022a8.828,8.828,0,0,1,2.852.4,3.871,3.871,0,0,1,1.879,1.334A6.162,6.162,0,0,1,141.793.7a18.958,18.958,0,0,1,.324,3.813,18.958,18.958,0,0,1-.324,3.813,6.162,6.162,0,0,1-1.029,2.478,3.871,3.871,0,0,1-1.879,1.334,10.275,10.275,0,0,1-5.7,0,3.937,3.937,0,0,1-1.89-1.334,6.063,6.063,0,0,1-1.04-2.478,18.961,18.961,0,0,1-.324-3.813A18.961,18.961,0,0,1,130.252.7a6.063,6.063,0,0,1,1.04-2.478,3.937,3.937,0,0,1,1.89-1.334A8.828,8.828,0,0,1,136.034-3.515Zm0,1.772a4.32,4.32,0,0,0-2.4.583A3.217,3.217,0,0,0,132.377.78a14.859,14.859,0,0,0-.369,3.734,14.883,14.883,0,0,0,.369,3.723,3.224,3.224,0,0,0,1.253,1.951,5.249,5.249,0,0,0,4.809,0,3.224,3.224,0,0,0,1.253-1.951,14.883,14.883,0,0,0,.369-3.723A14.859,14.859,0,0,0,139.691.78a3.217,3.217,0,0,0-1.253-1.94A4.32,4.32,0,0,0,136.034-1.743Zm22.009-1.48V6.331a10.068,10.068,0,0,1-.537,3.611,3.615,3.615,0,0,1-1.745,1.985,7.183,7.183,0,0,1-3.243.617,7.6,7.6,0,0,1-3.333-.617,3.671,3.671,0,0,1-1.812-1.985,9.7,9.7,0,0,1-.559-3.611V-3.223h1.968V6.331a8.1,8.1,0,0,0,.347,2.635,2.379,2.379,0,0,0,1.152,1.39,4.712,4.712,0,0,0,2.147.415,4.64,4.64,0,0,0,2.136-.415,2.433,2.433,0,0,0,1.152-1.39,7.863,7.863,0,0,0,.358-2.635V-3.223Zm10.781,0V12.251h-1.968V-3.223Zm4.988,0v1.749H161.89V-3.223Zm5.927,0V12.251h-1.968V-3.223ZM187.1,3.124v1.7H179.56v-1.7Zm1.722-6.347V12.251h-1.968V-3.223Zm17.334,0a.78.78,0,0,1,.47.146.7.7,0,0,1,.268.392l4.965,14.937h-2.035l-4-12.694q-.089-.314-.19-.639l-.19-.617h-.626q-.089.292-.179.617t-.2.639l-4,12.694h-2.035l4.966-14.937a.7.7,0,0,1,.268-.392.78.78,0,0,1,.47-.146ZM209.017,5.7v1.7h-7.828V5.7Zm9.417-8.949q1.074,0,2.17.011t2.17.034q1.074.022,2.058.112l-.112,1.525h-5.793a1.591,1.591,0,0,0-1.141.348,1.527,1.527,0,0,0-.358,1.133V12.251h-1.968V-.465a2.627,2.627,0,0,1,.805-2.052A3.111,3.111,0,0,1,218.434-3.246ZM215.839,3.5h8.03V5.1h-8.03Zm18.52-6.93a8.747,8.747,0,0,1,2.885.392,2.785,2.785,0,0,1,1.6,1.357,5.962,5.962,0,0,1,.5,2.714,6.49,6.49,0,0,1-.291,2.1,2.652,2.652,0,0,1-.906,1.3,3.457,3.457,0,0,1-1.644.594v.112a2,2,0,0,1,.749.37,3.126,3.126,0,0,1,.682.74,3.345,3.345,0,0,1,.47,1.11l1.5,4.889h-2.1l-1.364-4.844a2.489,2.489,0,0,0-.783-1.245,2.065,2.065,0,0,0-1.275-.37q-1.364,0-2.371-.011t-1.678-.034q-.671-.022-1.074-.022l.067-1.637h4.988a5.613,5.613,0,0,0,1.8-.269,1.634,1.634,0,0,0,.951-.886,4.411,4.411,0,0,0,.291-1.783,4.245,4.245,0,0,0-.291-1.761,1.645,1.645,0,0,0-.951-.863,5.293,5.293,0,0,0-1.8-.247q-1.834,0-3.165.022t-1.8.022l-.313-1.547q.85-.09,1.588-.135t1.622-.056Q233.129-3.425,234.359-3.425Zm-3.377.2V12.251h-1.946V-3.223Zm15.321,0V12.251h-1.968V-3.223Zm10.848-.269q.984,0,1.689.045a12.481,12.481,0,0,1,1.3.146q.593.1,1.219.258l-.2,1.5q-.671-.067-1.241-.112t-1.219-.067q-.649-.022-1.543-.022a4.217,4.217,0,0,0-2.371.583A3.245,3.245,0,0,0,253.539.791a14.881,14.881,0,0,0-.369,3.723,14.881,14.881,0,0,0,.369,3.723,3.245,3.245,0,0,0,1.241,1.951,4.217,4.217,0,0,0,2.371.583q1.431,0,2.4-.056t1.912-.191l.2,1.48a13.252,13.252,0,0,1-1.979.392,21.689,21.689,0,0,1-2.539.123,7.027,7.027,0,0,1-3.545-.774,4.407,4.407,0,0,1-1.924-2.523,15.119,15.119,0,0,1-.593-4.71,15.119,15.119,0,0,1,.593-4.71,4.407,4.407,0,0,1,1.924-2.523A7.027,7.027,0,0,1,257.151-3.493Zm14.785.269a.78.78,0,0,1,.47.146.7.7,0,0,1,.268.392l4.966,14.937H275.6l-4-12.694q-.089-.314-.19-.639l-.19-.617h-.626q-.089.292-.179.617t-.2.639l-4,12.694h-2.035L269.14-2.685a.7.7,0,0,1,.268-.392.78.78,0,0,1,.47-.146ZM274.8,5.7v1.7H266.97V5.7ZM7.367,16.36V31.834H5.4V16.36Zm4.988,0v1.749H.433V16.36Zm5.525,0V31.834H15.911V16.36Zm7.359,6.347v1.7H17.7v-1.7ZM26.96,16.36V31.834H24.992V16.36Zm10.289-.2a8.747,8.747,0,0,1,2.885.392,2.785,2.785,0,0,1,1.6,1.357,5.962,5.962,0,0,1,.5,2.714,6.489,6.489,0,0,1-.291,2.1,2.652,2.652,0,0,1-.906,1.3,3.457,3.457,0,0,1-1.644.594v.112a2,2,0,0,1,.749.37,3.127,3.127,0,0,1,.682.74,3.345,3.345,0,0,1,.47,1.11l1.5,4.889h-2.1L39.329,26.99a2.489,2.489,0,0,0-.783-1.245,2.065,2.065,0,0,0-1.275-.37q-1.364,0-2.371-.011t-1.678-.034q-.671-.022-1.074-.022l.067-1.637H37.2A5.612,5.612,0,0,0,39,23.4a1.634,1.634,0,0,0,.951-.886,4.41,4.41,0,0,0,.291-1.783,4.244,4.244,0,0,0-.291-1.761A1.645,1.645,0,0,0,39,18.109a5.293,5.293,0,0,0-1.8-.247q-1.834,0-3.165.022t-1.8.022l-.313-1.547q.85-.09,1.588-.135t1.622-.056Q36.019,16.158,37.249,16.158Zm-3.377.2V31.834H31.926V16.36Zm18.475-.292a8.828,8.828,0,0,1,2.852.4,3.871,3.871,0,0,1,1.879,1.334,6.162,6.162,0,0,1,1.029,2.478,18.96,18.96,0,0,1,.324,3.813,18.96,18.96,0,0,1-.324,3.813,6.162,6.162,0,0,1-1.029,2.478A3.871,3.871,0,0,1,55.2,31.722a10.275,10.275,0,0,1-5.7,0,3.937,3.937,0,0,1-1.89-1.334,6.063,6.063,0,0,1-1.04-2.478,18.96,18.96,0,0,1-.324-3.813,18.96,18.96,0,0,1,.324-3.813,6.063,6.063,0,0,1,1.04-2.478,3.937,3.937,0,0,1,1.89-1.334A8.828,8.828,0,0,1,52.347,16.068Zm0,1.772a4.32,4.32,0,0,0-2.4.583,3.217,3.217,0,0,0-1.253,1.94,14.859,14.859,0,0,0-.369,3.734,14.883,14.883,0,0,0,.369,3.723,3.224,3.224,0,0,0,1.253,1.951,5.249,5.249,0,0,0,4.809,0A3.224,3.224,0,0,0,56,27.82a14.883,14.883,0,0,0,.369-3.723A14.859,14.859,0,0,0,56,20.363a3.217,3.217,0,0,0-1.253-1.94A4.32,4.32,0,0,0,52.347,17.84Zm21.607-1.48v9.554a10.069,10.069,0,0,1-.537,3.611,3.615,3.615,0,0,1-1.745,1.985,7.183,7.183,0,0,1-3.243.617,7.6,7.6,0,0,1-3.333-.617,3.671,3.671,0,0,1-1.812-1.985,9.7,9.7,0,0,1-.559-3.611V16.36h1.968v9.554a8.1,8.1,0,0,0,.347,2.635,2.379,2.379,0,0,0,1.152,1.39,4.712,4.712,0,0,0,2.147.415,4.64,4.64,0,0,0,2.136-.415,2.433,2.433,0,0,0,1.152-1.39,7.863,7.863,0,0,0,.358-2.635V16.36Zm10.736-.292q.783,0,1.521.045t1.431.146a10.939,10.939,0,0,1,1.342.28l-.2,1.48q-.693-.067-1.4-.112t-1.353-.056q-.649-.011-1.23-.011a8.129,8.129,0,0,0-2.114.235,2.513,2.513,0,0,0-1.376.908,4.546,4.546,0,0,0-.749,1.929,18.456,18.456,0,0,0-.235,3.274,16.873,16.873,0,0,0,.313,3.644,3.454,3.454,0,0,0,1.051,1.962,3.008,3.008,0,0,0,1.968.606,4.677,4.677,0,0,0,1.555-.247,6.337,6.337,0,0,0,1.32-.639q.615-.392,1.2-.819L88,29.906a6.541,6.541,0,0,1-1.107.987,6.987,6.987,0,0,1-1.644.875,5.92,5.92,0,0,1-2.125.359,4.37,4.37,0,0,1-2.807-.863,4.936,4.936,0,0,1-1.577-2.646,17.563,17.563,0,0,1-.492-4.564,14.942,14.942,0,0,1,.615-4.811A4.154,4.154,0,0,1,80.9,16.786,8.462,8.462,0,0,1,84.69,16.068Zm4.7,6.818v8.949H87.955l-.313-2.288-.179-.449V22.886ZM95.9,16.36V31.834H93.927V16.36Zm7.359,6.347v1.7H95.717v-1.7Zm1.722-6.347V31.834h-1.968V16.36Zm16.037-.179a10.521,10.521,0,0,1,3.02.348,2.7,2.7,0,0,1,1.622,1.222,4.99,4.99,0,0,1,.5,2.467,4.383,4.383,0,0,1-.615,2.534,2.6,2.6,0,0,1-2,1.009v.09a2.99,2.99,0,0,1,2.4,1.211,5.335,5.335,0,0,1,.682,2.916,5.085,5.085,0,0,1-.492,2.467,2.647,2.647,0,0,1-1.577,1.222,9.588,9.588,0,0,1-2.852.348q-1.32,0-2.27-.011t-1.756-.056q-.805-.045-1.678-.112l.313-1.57q.492.022,1.868.045t3.21.022a6.953,6.953,0,0,0,1.935-.213,1.591,1.591,0,0,0,1.007-.8,3.744,3.744,0,0,0,.3-1.682,4.408,4.408,0,0,0-.313-1.861,1.791,1.791,0,0,0-1.051-.92,6.388,6.388,0,0,0-2.013-.292h-4.965v-1.5h4.943a6.4,6.4,0,0,0,1.778-.235,1.548,1.548,0,0,0,.951-.785,3.6,3.6,0,0,0,.291-1.6,3.366,3.366,0,0,0-.313-1.615,1.621,1.621,0,0,0-1.04-.763,7.7,7.7,0,0,0-1.979-.2h-1.968q-.872,0-1.532.011t-1.107.056L116,16.36q.783-.09,1.487-.123t1.543-.045Q119.873,16.18,121.014,16.18Zm-3.087.179V31.834H116V16.36Zm15.858-.022h2.248q1.13,0,2.237.034t2.136.1l-.089,1.547h-6.2a1.332,1.332,0,0,0-1.018.348,1.63,1.63,0,0,0-.324,1.133v9.2a1.675,1.675,0,0,0,.324,1.144,1.307,1.307,0,0,0,1.018.359h6.2l.089,1.525q-1.029.067-2.136.09t-2.237.034q-1.13.011-2.248.011a3.069,3.069,0,0,1-2.158-.729,2.6,2.6,0,0,1-.816-1.962V19.028a2.592,2.592,0,0,1,.816-1.974A3.1,3.1,0,0,1,133.785,16.337Zm-2.572,6.526h8.231v1.592h-8.231Zm18.855-6.5V31.834H148.1V16.36Zm4.988,0v1.749H143.135V16.36Zm9.081,0V31.834h-1.968V16.36Zm4.988,0v1.749H157.2V16.36Zm6.4-.022h2.248q1.13,0,2.237.034t2.136.1l-.089,1.547h-6.2a1.332,1.332,0,0,0-1.018.348,1.63,1.63,0,0,0-.324,1.133v9.2a1.675,1.675,0,0,0,.324,1.144,1.307,1.307,0,0,0,1.018.359h6.2l.089,1.525q-1.029.067-2.136.09t-2.237.034q-1.129.011-2.248.011a3.069,3.069,0,0,1-2.158-.729,2.6,2.6,0,0,1-.816-1.962V19.028a2.592,2.592,0,0,1,.816-1.974A3.1,3.1,0,0,1,175.522,16.337Zm-2.572,6.526h8.231v1.592H172.95ZM191.6,16.158a8.747,8.747,0,0,1,2.885.392,2.785,2.785,0,0,1,1.6,1.357,5.962,5.962,0,0,1,.5,2.714,6.49,6.49,0,0,1-.291,2.1,2.652,2.652,0,0,1-.906,1.3,3.457,3.457,0,0,1-1.644.594v.112a2,2,0,0,1,.749.37,3.127,3.127,0,0,1,.682.74,3.346,3.346,0,0,1,.47,1.11l1.5,4.889h-2.1l-1.364-4.844a2.489,2.489,0,0,0-.783-1.245,2.065,2.065,0,0,0-1.275-.37q-1.364,0-2.371-.011t-1.677-.034q-.671-.022-1.074-.022l.067-1.637h4.988a5.611,5.611,0,0,0,1.8-.269,1.634,1.634,0,0,0,.951-.886,4.41,4.41,0,0,0,.291-1.783,4.244,4.244,0,0,0-.291-1.761,1.645,1.645,0,0,0-.951-.863,5.293,5.293,0,0,0-1.8-.247q-1.834,0-3.165.022t-1.8.022l-.313-1.547q.85-.09,1.588-.135t1.622-.056Q190.374,16.158,191.6,16.158Zm-3.377.2V31.834h-1.946V16.36Zm24.335-.2a8.747,8.747,0,0,1,2.885.392,2.785,2.785,0,0,1,1.6,1.357,5.962,5.962,0,0,1,.5,2.714,6.49,6.49,0,0,1-.291,2.1,2.652,2.652,0,0,1-.906,1.3,3.457,3.457,0,0,1-1.644.594v.112a2,2,0,0,1,.749.37,3.126,3.126,0,0,1,.682.74,3.345,3.345,0,0,1,.47,1.11l1.5,4.889h-2.1l-1.364-4.844a2.489,2.489,0,0,0-.783-1.245,2.065,2.065,0,0,0-1.275-.37q-1.364,0-2.371-.011t-1.678-.034q-.671-.022-1.074-.022l.067-1.637h4.988a5.612,5.612,0,0,0,1.8-.269,1.634,1.634,0,0,0,.951-.886,4.411,4.411,0,0,0,.291-1.783,4.245,4.245,0,0,0-.291-1.761,1.645,1.645,0,0,0-.951-.863,5.293,5.293,0,0,0-1.8-.247q-1.834,0-3.165.022t-1.8.022l-.313-1.547q.85-.09,1.588-.135t1.622-.056Q211.332,16.158,212.562,16.158Zm-3.377.2V31.834h-1.946V16.36Zm18.475-.292a8.828,8.828,0,0,1,2.852.4,3.871,3.871,0,0,1,1.879,1.334,6.163,6.163,0,0,1,1.029,2.478,18.965,18.965,0,0,1,.324,3.813,18.965,18.965,0,0,1-.324,3.813,6.163,6.163,0,0,1-1.029,2.478,3.871,3.871,0,0,1-1.879,1.334,10.275,10.275,0,0,1-5.7,0,3.937,3.937,0,0,1-1.89-1.334,6.063,6.063,0,0,1-1.04-2.478,18.962,18.962,0,0,1-.324-3.813,18.962,18.962,0,0,1,.324-3.813,6.063,6.063,0,0,1,1.04-2.478,3.937,3.937,0,0,1,1.89-1.334A8.828,8.828,0,0,1,227.66,16.068Zm0,1.772a4.32,4.32,0,0,0-2.4.583A3.217,3.217,0,0,0,224,20.363a14.858,14.858,0,0,0-.369,3.734A14.881,14.881,0,0,0,224,27.82a3.224,3.224,0,0,0,1.253,1.951,5.249,5.249,0,0,0,4.809,0,3.224,3.224,0,0,0,1.253-1.951,14.883,14.883,0,0,0,.369-3.723,14.859,14.859,0,0,0-.369-3.734,3.217,3.217,0,0,0-1.253-1.94A4.32,4.32,0,0,0,227.66,17.84Zm16.44-1.48a.78.78,0,0,1,.47.146.7.7,0,0,1,.268.392L249.8,31.834h-2.035l-4-12.694q-.089-.314-.19-.639l-.19-.617h-.626q-.089.292-.179.617t-.2.639l-4,12.694h-2.035L241.3,16.9a.7.7,0,0,1,.268-.392.779.779,0,0,1,.47-.146Zm2.863,8.926v1.7h-7.828v-1.7Zm11.586-9.128a8.542,8.542,0,0,1,2.807.4,3.908,3.908,0,0,1,1.856,1.323,6.047,6.047,0,0,1,1.029,2.445,18.484,18.484,0,0,1,.324,3.768,18.484,18.484,0,0,1-.324,3.768,6.046,6.046,0,0,1-1.029,2.445,3.908,3.908,0,0,1-1.856,1.323,8.542,8.542,0,0,1-2.807.4q-1.588,0-2.941-.056t-2.561-.146l.85-1.615q.939.022,2.091.056t2.561.034a4.235,4.235,0,0,0,2.349-.572,3.188,3.188,0,0,0,1.241-1.929,14.744,14.744,0,0,0,.369-3.712,14.744,14.744,0,0,0-.369-3.712,3.239,3.239,0,0,0-1.241-1.94,4.171,4.171,0,0,0-2.349-.583q-1.387,0-2.494.022l-2.158.045-.85-1.57q1.208-.09,2.561-.146T258.549,16.158Zm-3.534.2V31.834h-1.968V16.36Zm18.252-.269q1.1.022,2.259.112a17.8,17.8,0,0,1,2.326.336l-.134,1.435q-.962-.045-2.125-.078t-2.237-.034q-.828,0-1.42.056a2.461,2.461,0,0,0-.973.269,1.214,1.214,0,0,0-.548.7,4.21,4.21,0,0,0-.168,1.334A2.666,2.666,0,0,0,270.705,22a2.872,2.872,0,0,0,1.487.751l3.131.785a3.728,3.728,0,0,1,2.449,1.491,5.39,5.39,0,0,1,.66,2.859,6.49,6.49,0,0,1-.3,2.175,2.557,2.557,0,0,1-.928,1.267,3.946,3.946,0,0,1-1.61.606,14,14,0,0,1-2.326.168q-.76,0-1.98-.067a22.705,22.705,0,0,1-2.807-.359l.134-1.458q1.32.045,2.125.078t1.387.034h1.208a7.664,7.664,0,0,0,1.868-.179,1.426,1.426,0,0,0,.962-.718,3.56,3.56,0,0,0,.28-1.592,3.806,3.806,0,0,0-.2-1.391,1.505,1.505,0,0,0-.637-.751,3.95,3.95,0,0,0-1.107-.415l-3.2-.807a3.761,3.761,0,0,1-2.36-1.48,5.144,5.144,0,0,1-.682-2.826,6.389,6.389,0,0,1,.3-2.164,2.457,2.457,0,0,1,.917-1.234,3.682,3.682,0,0,1,1.555-.549A16.034,16.034,0,0,1,273.266,16.09Z" transform="translate(-0.433 204.269)" fill="#fff"/>
</svg>
